<?xml version="1.0" encoding="UTF-8" standalone="no"?><!DOCTYPE svg PUBLIC "-//W3C//DTD SVG 1.1//EN" "http://www.w3.org/Graphics/SVG/1.1/DTD/svg11.dtd"><svg width="100%" height="100%" viewBox="0 0 174 43" version="1.1" xmlns="http://www.w3.org/2000/svg" xmlns:xlink="http://www.w3.org/1999/xlink" xml:space="preserve" style="fill-rule:evenodd;clip-rule:evenodd;stroke-linejoin:round;stroke-miterlimit:1.41421;"><rect id="ejs-logo" x="0" y="0" width="173.757" height="42.551" style="fill:none;"/><g><path d="M35.816,20.285c0,7.841 -6.356,14.198 -14.197,14.198c-7.841,0 -14.198,-6.357 -14.198,-14.198c0,-7.841 6.357,-14.197 14.198,-14.197c7.841,0 14.197,6.356 14.197,14.197" style="fill:#0098cf;fill-rule:nonzero;"/><path d="M68.674,20.285c0,7.841 -6.357,14.198 -14.198,14.198c-7.841,0 -14.198,-6.357 -14.198,-14.198c0,-7.841 6.357,-14.197 14.198,-14.197c7.841,0 14.198,6.356 14.198,14.197" style="fill:#a4752a;fill-rule:nonzero;"/><path d="M101.531,20.285c0,7.841 -6.357,14.198 -14.198,14.198c-7.841,0 -14.197,-6.357 -14.197,-14.198c0,-7.841 6.356,-14.197 14.197,-14.197c7.841,0 14.198,6.356 14.198,14.197" style="fill:#959494;fill-rule:nonzero;"/><path d="M134.388,20.285c0,7.841 -6.356,14.198 -14.198,14.198c-7.841,0 -14.197,-6.357 -14.197,-14.198c0,-7.841 6.356,-14.197 14.197,-14.197c7.842,0 14.198,6.356 14.198,14.197" style="fill:#e73b3d;fill-rule:nonzero;"/><path d="M167.245,20.285c0,7.841 -6.356,14.198 -14.197,14.198c-7.841,0 -14.198,-6.357 -14.198,-14.198c0,-7.841 6.357,-14.197 14.198,-14.197c7.841,0 14.197,6.356 14.197,14.197" style="fill:#c72964;fill-rule:nonzero;"/><path d="M51.302,21.954l0,1.115c0,1.695 0.488,2.391 1.718,2.391c1.44,0 1.696,-0.975 1.696,-3.181l0,-10.518l4.179,0l0,10.379c0,4.667 -1.556,6.733 -5.898,6.733c-3.854,0 -5.688,-2.019 -5.688,-6.222c0,-0.232 0.023,-0.465 0.023,-0.697l3.97,0Z" style="fill:#fff;fill-rule:nonzero;"/><path d="M84.809,22.937c0.046,1.904 1.114,2.879 3.157,2.879c1.788,0 2.74,-0.627 2.74,-1.648c0,-0.557 -0.255,-0.976 -0.65,-1.184c-0.998,-0.511 -2.902,-0.836 -5.34,-1.811c-2.415,-0.952 -3.669,-2.555 -3.669,-4.621c0,-3.135 2.484,-5.225 6.664,-5.225c4.063,0 6.548,2.183 6.548,5.504l-4.017,0c-0.186,-1.556 -1.091,-2.276 -2.81,-2.276c-1.439,0 -2.322,0.673 -2.322,1.509c0,1.254 1.301,1.509 3.925,2.369c1.927,0.626 3.32,1.068 4.132,1.718c1.092,0.882 1.649,2.09 1.649,3.529c0,3.251 -2.577,5.271 -7.268,5.271c-4.342,0 -6.594,-1.974 -6.849,-6.014l4.11,0Z" style="fill:#fff;fill-rule:nonzero;"/><path d="M15.01,10.683l12.678,0l0,3.413l-8.405,0l0,2.949l7.685,0l0,3.343l-7.685,0l0,3.576l8.684,0l0,3.413l-12.957,0l0,-16.694Z" style="fill:#fff;fill-rule:nonzero;"/><path d="M118.164,18.051l-3.738,0l0,-2.554l0.325,0c2.74,0 4.086,-0.859 4.272,-2.949l3.181,0l0,16.021l-4.04,0l0,-10.518Z" style="fill:#fff;fill-rule:nonzero;"/><path d="M155.173,15.915l-8.103,0l0,-3.367l12.19,0l0,3.204c-3.506,3.924 -5.341,8.22 -5.596,12.817l-4.528,0c0.232,-4.179 2.229,-8.428 6.037,-12.654" style="fill:#fff;fill-rule:nonzero;"/></g></svg>